<?xml version="1.0" encoding="UTF-8"?>
<svg version="1.1" xmlns="http://www.w3.org/2000/svg" width="512" height="512">
<path d="M0 0 C0.78049421 -0.00235223 1.56098842 -0.00470446 2.36513397 -0.00712797 C5.00221754 -0.01382892 7.63925196 -0.01335942 10.27634335 -0.01294994 C12.17746412 -0.01624789 14.07858419 -0.01997331 15.97970337 -0.02409142 C21.22114733 -0.0341275 26.46257985 -0.0378308 31.70403206 -0.04048073 C37.35044508 -0.04437906 42.99684898 -0.05395776 48.64325619 -0.0626936 C62.28844566 -0.08247202 75.93363589 -0.09252625 89.57883611 -0.10142139 C96.00152393 -0.10580229 102.42421092 -0.11116963 108.84689808 -0.11641026 C130.19252951 -0.13342439 151.53815974 -0.14794379 172.88379669 -0.155159 C174.26451933 -0.15563375 175.64524197 -0.15610964 177.02596461 -0.15658666 C177.71068146 -0.15682303 178.39539831 -0.15705941 179.10086416 -0.15730295 C182.56999667 -0.15850415 186.03912918 -0.1597196 189.50826168 -0.16094494 C190.54095329 -0.16130516 190.54095329 -0.16130516 191.59450736 -0.16167267 C213.91242184 -0.16956432 236.23028314 -0.1929926 258.5481744 -0.22550088 C282.14260953 -0.25980583 305.73700214 -0.27950966 329.33146518 -0.28280324 C342.19349166 -0.28496976 355.05544002 -0.29373917 367.91744328 -0.31926441 C378.8708328 -0.34095141 389.82412522 -0.34903168 400.77753378 -0.33929763 C406.36657981 -0.33474708 411.95542543 -0.33668319 417.54444408 -0.35605907 C422.6626152 -0.37364942 427.78043909 -0.3727264 432.89861368 -0.35716178 C434.7486266 -0.35477944 436.59866331 -0.35914164 438.44863982 -0.37099043 C451.50816726 -0.44944263 461.59024537 0.52757231 471.46309566 9.84125233 C476.82843898 16.05319814 479.56497221 23.21295794 479.57778549 31.34476948 C479.58224334 32.65371567 479.58670118 33.96266187 479.59129411 35.3112731 C479.59120481 36.77264151 479.59101495 38.23400992 479.59073544 39.6953783 C479.59403391 41.24105373 479.59775945 42.78672829 479.60187691 44.33240175 C479.61190719 48.59138001 479.61561537 52.85034417 479.61826622 57.10933256 C479.62216632 61.69849625 479.63174498 66.28764875 479.64047909 70.87680531 C479.66025355 81.96654492 479.67031171 93.05628546 479.67920688 104.14603829 C479.68358885 109.36768068 479.68895595 114.58932205 479.69419575 119.81096363 C479.71121028 137.16851306 479.72570399 154.52606186 479.73294449 171.88361835 C479.73485441 176.38935312 479.73677474 180.89508789 479.73873043 185.40082264 C479.73921417 186.52071187 479.73969791 187.64060111 479.74019631 188.79442638 C479.74849483 206.93190927 479.77382775 225.06932617 479.80631111 243.20678025 C479.83938572 261.826144 479.85739368 280.44547422 479.86058873 299.0648675 C479.86275363 309.51969302 479.87149925 319.97442235 479.8970499 330.42921925 C479.9187625 339.33420719 479.92680461 348.2390756 479.91708312 357.14408702 C479.91253984 361.68621173 479.91442626 366.22808984 479.93384457 370.7701807 C479.95148731 374.93299512 479.95046961 379.09538323 479.93494727 383.25820225 C479.93257286 384.75964945 479.93688613 386.26112625 479.94877592 387.76252824 C480.03342063 399.16250792 478.6103308 409.2471561 471.20918941 418.34906483 C466.13888196 423.47545975 460.46084632 426.64118237 453.44356441 428.13422108 C453.52606441 429.30984608 453.60856441 430.48547108 453.69356441 431.69672108 C453.68487866 436.59548574 452.31272384 439.17943376 449.44356441 443.13422108 C445.6775839 445.92165532 443.02167928 446.50713681 438.37549496 446.49498463 C437.15698345 446.49910862 435.93847195 446.50323261 434.68303585 446.50748158 C433.34108415 446.49686566 431.99913471 446.48596125 430.65718746 446.47479725 C429.23774897 446.47395062 427.81830916 446.47442682 426.39887142 446.47612476 C422.55206726 446.47698476 418.70554429 446.45935847 414.85880542 446.43840289 C410.83627645 446.41963673 406.81374088 446.4178857 402.79117489 446.41432667 C395.17684633 446.40500602 387.56264714 446.38039199 379.94837552 446.3502782 C371.27855162 446.3167348 362.6087215 446.30024834 353.93884885 446.28519189 C336.10701406 446.25384243 318.27529964 446.20108155 300.44356441 446.13422108 C300.44356441 449.10422108 300.44356441 452.07422108 300.44356441 455.13422108 C301.23939938 455.11327381 302.03523434 455.09232655 302.85518551 455.07074451 C306.5095133 454.9868834 310.16363774 454.93533893 313.81856441 454.88422108 C315.0702441 454.85070545 316.32192379 454.81718983 317.61153316 454.78265858 C326.73198987 454.68715641 333.35802494 456.12912957 341.19356441 460.75922108 C349.73686748 469.77715209 350.6586258 478.12170985 350.75606441 490.00922108 C350.78506832 491.18097889 350.81407223 492.3527367 350.84395504 493.56000233 C350.92372228 504.37153074 350.92372228 504.37153074 346.44356441 509.13422108 C343.37952934 511.17691113 342.77309306 511.38504508 339.32460117 511.39428329 C338.0610192 511.40488168 338.0610192 511.40488168 336.77191031 511.41569418 C335.38355619 511.41207155 335.38355619 511.41207155 333.9671545 511.40837574 C332.98398294 511.41361242 332.00081137 511.4188491 330.98784673 511.42424446 C327.67828622 511.43930122 324.36887954 511.43995086 321.05928707 511.44061756 C318.69260044 511.44823519 316.32591629 511.456662 313.95923519 511.46584034 C307.51919894 511.48783049 301.07919707 511.49661174 294.63912916 511.50166678 C290.61866832 511.50492258 286.59821707 511.51144432 282.57776165 511.51866817 C271.44808987 511.5382346 260.318427 511.55463876 249.18873692 511.55754471 C248.12024021 511.55782606 248.12024021 511.55782606 247.03015771 511.5581131 C245.58606744 511.55847935 244.14197717 511.55884305 242.6978869 511.55920421 C241.98103079 511.55938702 241.26417468 511.55956984 240.52559566 511.55975819 C239.44900051 511.56002901 239.44900051 511.56002901 238.35065596 511.5603053 C226.71762709 511.56384789 215.08478323 511.59087521 203.45181854 511.62825608 C191.51084845 511.66631992 179.5699702 511.68570204 167.62893808 511.68600422 C160.923445 511.6865892 154.21817265 511.69510712 147.51273632 511.72400188 C141.20734479 511.75009391 134.90239123 511.75243707 128.59697056 511.73634624 C126.28020114 511.73452473 123.96340704 511.74128531 121.64669132 511.75716496 C118.48858386 511.77749538 115.33202761 511.76714958 112.17394161 511.74895191 C110.79227965 511.76875186 110.79227965 511.76875186 109.38270533 511.78895181 C104.8847778 511.72957772 103.04704349 511.61312989 99.41622639 508.73178673 C95.05392331 502.98758484 95.10642307 497.93993496 95.13106441 490.94672108 C95.11495113 490.05146717 95.09883785 489.15621326 95.08223629 488.23383045 C95.07585583 479.39689053 96.75549277 471.12242339 102.44356441 464.13422108 C110.10063521 456.65522169 117.56172927 454.67168233 128.18770504 454.78265858 C130.07779293 454.83293201 130.07779293 454.83293201 132.00606441 454.88422108 C133.3009277 454.90226795 134.59579098 454.92031483 135.92989254 454.93890858 C139.10143925 454.98572107 142.27260138 455.05745264 145.44356441 455.13422108 C145.44356441 446.55422108 145.44356441 437.97422108 145.44356441 429.13422108 C142.12032101 429.16564198 142.12032101 429.16564198 138.72994137 429.19769764 C131.40584548 429.26400868 124.08173626 429.30817281 116.75741959 429.34146976 C112.31710893 429.36233497 107.87710611 429.39063285 103.43697262 429.43597889 C99.15109073 429.47947514 94.86550473 429.50336621 90.57941914 429.51373005 C88.94513637 429.52111468 87.31086961 429.53553533 85.67671299 429.5571413 C83.38550748 429.58622667 81.09552087 429.59017511 78.80416012 429.58832264 C77.50066113 429.59720509 76.19716213 429.60608753 74.85416317 429.61523914 C70.87431822 429.05393673 69.18574371 428.0365733 66.44356441 425.13422108 C66.44356441 424.14422108 66.44356441 423.15422108 66.44356441 422.13422108 C56.54356441 422.13422108 46.64356441 422.13422108 36.44356441 422.13422108 C35.78356441 423.78422108 35.12356441 425.43422108 34.44356441 427.13422108 C30.74898494 429.59727406 27.90359012 429.44026504 23.62715816 429.43500233 C22.85606213 429.43928745 22.08496609 429.44357258 21.2905035 429.44798756 C19.65558 429.45373137 18.02063093 429.45423073 16.38570309 429.44989491 C13.91429532 429.44676319 11.44411855 429.47009271 8.97286129 429.4955492 C-3.59564113 429.54615133 -13.29729768 428.50809826 -23.11893559 419.88422108 C-28.97464995 413.27777411 -32.80266826 406.58940212 -32.81370449 397.62793159 C-32.81721057 396.98526471 -32.82071664 396.34259783 -32.82432896 395.68045619 C-32.83364236 393.52419586 -32.82871989 391.36820565 -32.82386112 389.21193409 C-32.82759743 387.65144416 -32.83219888 386.09095611 -32.83759177 384.53047103 C-32.84983986 380.23985601 -32.84955917 375.94931885 -32.84720302 371.65869033 C-32.8467953 367.03208293 -32.85782976 362.40550065 -32.86731815 357.77890491 C-32.88393967 348.7129927 -32.88942824 339.64710649 -32.89054291 330.58118031 C-32.89149296 323.21152961 -32.89560108 315.84188749 -32.90194416 308.47223949 C-32.91956067 287.57950924 -32.92878253 266.68679955 -32.92728321 245.79406182 C-32.9272033 244.66744474 -32.92712339 243.54082767 -32.92704105 242.38007069 C-32.92695929 241.2520783 -32.92687753 240.12408591 -32.92679329 238.96191194 C-32.92598055 220.68484648 -32.94511419 202.40786347 -32.97331779 184.13082186 C-33.00204619 165.36562348 -33.01585807 146.60046529 -33.01413023 127.83524436 C-33.01346626 117.2994442 -33.01896173 106.76373045 -33.04048634 96.2279501 C-33.05869766 87.25636771 -33.06304594 78.28491086 -33.04946749 69.31331799 C-33.04293727 64.73687931 -33.04282254 60.16068148 -33.06017399 55.58426571 C-33.07590764 51.39135299 -33.07303818 47.19887205 -33.05560572 43.00596984 C-33.05253644 41.49249051 -33.05616558 39.97897894 -33.06732588 38.46553764 C-33.15102799 26.30531829 -31.38525515 17.16301199 -22.84940434 8.11468983 C-16.13197825 2.31275622 -8.71505741 -0.01770079 0 0 Z " fill="#010101" transform="translate(32.55643558502197,0.865778923034668)"/>
<path d="M0 0 C158.73 0 317.46 0 481 0 C481 82.5 481 165 481 250 C477.7 250 474.4 250 471 250 C470.9906543 248.72882324 470.98130859 247.45764648 470.97167969 246.14794922 C470.9317135 241.41761638 470.86593586 236.68792938 470.79248047 231.95800781 C470.76430934 229.91349605 470.74307565 227.86887616 470.72900391 225.82421875 C470.70752113 222.87964678 470.6608431 219.93636959 470.609375 216.9921875 C470.60753204 215.6277803 470.60753204 215.6277803 470.60565186 214.23580933 C470.45118586 207.49555406 469.05862337 203.96223818 464.140625 199.19921875 C461.36852944 197.64623821 458.88836034 197.25596396 455.75 196.8125 C453.8525 196.544375 451.955 196.27625 450 196 C450 191.05 450 186.1 450 181 C451.711875 180.731875 453.42375 180.46375 455.1875 180.1875 C460.8874402 179.12789573 464.27517757 178.03345795 468.09570312 173.52929688 C470.88016386 169.22515718 470.57440412 164.7620084 470.53125 159.78125 C470.53699036 158.31709656 470.53699036 158.31709656 470.54284668 156.82336426 C470.54556074 154.76585861 470.53823509 152.70831816 470.52148438 150.65087891 C470.50006789 147.50995618 470.52130364 144.37132073 470.546875 141.23046875 C470.54423163 139.22655747 470.53910648 137.22264762 470.53125 135.21875 C470.54339539 133.81695496 470.54339539 133.81695496 470.55578613 132.38684082 C470.47593268 126.80653869 469.93541369 123.28333184 466 119 C460.6896238 115.14266882 455.10108794 115.58046299 448.80078125 115.63671875 C447.72877975 115.63622025 446.65677826 115.63572174 445.55229187 115.63520813 C443.29387552 115.63754245 441.03545626 115.64723292 438.77709961 115.66381836 C435.31405517 115.68748937 431.8517771 115.68436444 428.38867188 115.67773438 C426.19270373 115.68330884 423.99673883 115.69041725 421.80078125 115.69921875 C420.76327225 115.69830734 419.72576324 115.69739594 418.65681458 115.69645691 C417.21467842 115.71075493 417.21467842 115.71075493 415.7434082 115.7253418 C414.89768753 115.72994919 414.05196686 115.73455658 413.18061829 115.73930359 C410.70787438 115.86829981 410.70787438 115.86829981 408 118 C407.27617533 120.05925139 407.27617533 120.05925139 407 122 C402.49774209 122.12361526 397.99647151 122.21434063 393.49291992 122.2746582 C391.96116939 122.29980078 390.42953883 122.33392047 388.89819336 122.37719727 C386.69615116 122.43786942 384.49569426 122.46620891 382.29296875 122.48828125 C381.60849167 122.51408768 380.92401459 122.5398941 380.21879578 122.56648254 C378.27807617 122.56762695 378.27807617 122.56762695 375 122 C373.16918945 119.53198242 373.16918945 119.53198242 372 117 C369.66829203 115.83414602 368.29749884 115.86693861 365.69976807 115.85282898 C364.79696106 115.84567368 363.89415405 115.83851837 362.96398926 115.83114624 C361.97072632 115.82845734 360.97746338 115.82576843 359.95410156 115.82299805 C358.38804169 115.81314125 358.38804169 115.81314125 356.79034424 115.80308533 C353.32377049 115.783321 349.85724013 115.77168258 346.390625 115.76171875 C345.20843132 115.75764322 344.02623764 115.7535677 342.80821991 115.74936867 C336.55085931 115.72849432 330.29352073 115.71419863 324.03613281 115.70483398 C317.56843944 115.69376821 311.10108998 115.65936983 304.63351822 115.61966228 C299.66468663 115.59353216 294.69593741 115.58514531 289.72704315 115.58155251 C287.34280831 115.57667706 284.95857737 115.56503598 282.57440948 115.54651451 C279.23715382 115.52220114 275.90079344 115.52307429 272.56347656 115.5300293 C271.57831055 115.51721924 270.59314453 115.50440918 269.578125 115.49121094 C263.73471651 115.53560014 260.45706096 116.12310013 256 120 C252.47743086 125.03416969 252.54681964 129.82371484 252.56640625 135.74609375 C252.5611644 136.67543228 252.55592255 137.60477081 252.55052185 138.56227112 C252.54411842 140.52140304 252.54541684 142.48057349 252.55395508 144.43969727 C252.56246349 147.42469255 252.53368284 150.40777166 252.50195312 153.39257812 C252.50034078 155.30208276 252.50091928 157.21159077 252.50390625 159.12109375 C252.48705528 160.44952553 252.48705528 160.44952553 252.46986389 161.80479431 C252.53566843 167.70413779 253.54808148 171.17446589 257 176 C262.27611988 179.93122657 266.48804067 180.59926404 273 181 C273 185.95 273 190.9 273 196 C271.14375 196.226875 269.2875 196.45375 267.375 196.6875 C261.68564039 197.64019937 258.81688028 198.68089863 255 203 C249.16970522 217.57573694 252.37366908 234.30589869 252 250 C168.84 250 85.68 250 0 250 C0 167.5 0 85 0 0 Z " fill="#FDD66D" transform="translate(15,103)"/>
<path d="M0 0 C0.76788601 -0.00235223 1.53577202 -0.00470446 2.3269273 -0.00712797 C4.92109182 -0.01382828 7.51520636 -0.01335944 10.10937881 -0.01294994 C11.97963928 -0.01624792 13.84989903 -0.01997334 15.72015786 -0.02409142 C20.8761811 -0.03412695 26.03219269 -0.0378307 31.18822432 -0.04048073 C36.74255463 -0.04437914 42.29687569 -0.05395774 47.8512001 -0.0626936 C61.27241901 -0.08247027 74.69363868 -0.09252536 88.11486852 -0.10142139 C94.43085172 -0.10580198 100.74683408 -0.11116935 107.06281662 -0.11641026 C128.05073616 -0.1334231 149.03865553 -0.14794331 170.02658081 -0.155159 C171.38408506 -0.15563376 172.74158932 -0.15610964 174.09909357 -0.15658666 C174.77229933 -0.15682303 175.44550509 -0.15705941 176.13911103 -0.15730295 C179.54995632 -0.15850416 182.9608016 -0.15971961 186.37164688 -0.16094494 C187.04854149 -0.16118509 187.7254361 -0.16142524 188.42284267 -0.16167267 C210.37371241 -0.16956714 232.32452815 -0.19300202 254.2753743 -0.22550088 C277.47776764 -0.25979005 300.68013067 -0.27950811 323.88255334 -0.28280324 C336.5326565 -0.28497103 349.18268027 -0.29375908 361.83275986 -0.31926441 C372.60361256 -0.34093033 383.37436659 -0.34904207 394.14523861 -0.33929763 C399.64277717 -0.33474112 405.14011198 -0.33671754 410.63762283 -0.35605907 C415.66866926 -0.37360699 420.69936205 -0.37276131 425.7304118 -0.35716178 C427.5521078 -0.35477295 429.37382775 -0.35917487 431.19548699 -0.37099043 C433.66971705 -0.3860468 436.14268388 -0.37648104 438.61688232 -0.36076355 C439.68057161 -0.37609686 439.68057161 -0.37609686 440.76574957 -0.39173993 C446.7445201 -0.30870958 450.94393125 1.68227414 455.30231094 5.76703358 C468.70634449 23.42338121 459.56012344 49.96634506 459.56012344 72.13422108 C301.16012344 72.13422108 142.76012344 72.13422108 -20.43987656 72.13422108 C-20.43987656 10.25158049 -20.43987656 10.25158049 -14.84222031 4.48968983 C-9.81329225 0.47995785 -6.23695544 -0.01287879 0 0 Z " fill="#ABABAB" transform="translate(36.439876556396484,15.865778923034668)"/>
<path d="M0 0 C90.09 0 180.18 0 273 0 C273 4.29 273 8.58 273 13 C270.710625 13.12375 270.710625 13.12375 268.375 13.25 C262.7461304 13.81527545 259.24260539 15.56134738 255.37182617 19.77050781 C253.62992332 22.6014487 253.57273516 24.54878174 253.48828125 27.859375 C253.45283203 28.97441406 253.41738281 30.08945312 253.38085938 31.23828125 C253.34702148 32.97658203 253.34702148 32.97658203 253.3125 34.75 C253.27833984 35.92433594 253.24417969 37.09867187 253.20898438 38.30859375 C253.12654827 41.20563389 253.05738189 44.10237298 253 47 C252.15147776 47.00331015 251.30295551 47.00662029 250.42872047 47.01003075 C229.80696722 47.09115953 209.18528822 47.18321845 188.56363869 47.28752708 C178.59126961 47.33770429 168.61890896 47.38414651 158.64648438 47.421875 C149.95714927 47.45475859 141.26787863 47.49456948 132.57861459 47.54279006 C127.97534155 47.56809131 123.37211148 47.58986176 118.76878738 47.60334396 C114.43993348 47.61613157 110.11122668 47.63814984 105.78245354 47.66738319 C104.19010313 47.67648492 102.59772902 47.68215521 101.00535393 47.68421364 C98.83824933 47.68751799 96.67156648 47.7029448 94.50454712 47.7215271 C93.28962397 47.72705786 92.07470081 47.73258862 90.82296181 47.73828697 C87.86472425 47.70940078 87.86472425 47.70940078 86 50 C85.34 51.65 84.68 53.3 84 55 C74.1 55 64.2 55 54 55 C53.01 53.02 52.02 51.04 51 49 C49.01068291 47.01068291 45.03574436 47.86307468 42.30859375 47.859375 C40.70766826 47.84103008 39.10675645 47.82145824 37.50585938 47.80078125 C34.98015597 47.77193842 32.45532152 47.75000347 29.92944336 47.74951172 C11.79169987 47.72449661 11.79169987 47.72449661 6 42 C-5.77882407 30.07450475 0 19.93667629 0 0 Z " fill="#818181" transform="translate(15,368)"/>
<path d="M0 0 C0.495 0.99 0.495 0.99 1 2 C11.56 2 22.12 2 33 2 C33.99 4.475 33.99 4.475 35 7 C37.75755141 8.92675591 40.08459282 9.26031634 43.40136719 9.31884766 C44.6922525 9.34865219 44.6922525 9.34865219 46.00921631 9.37905884 C46.92914368 9.39061005 47.84907104 9.40216125 48.796875 9.4140625 C49.74564514 9.43342865 50.69441528 9.4527948 51.67193604 9.4727478 C54.69786633 9.53245659 57.72383484 9.57889433 60.75 9.625 C62.80340187 9.66318777 64.85678786 9.70223997 66.91015625 9.7421875 C71.94002084 9.83977582 76.96971927 9.91941372 82 10 C82 21.88 82 33.76 82 46 C19.63 46 -42.74 46 -107 46 C-107 34.12 -107 22.24 -107 10 C-102.44989136 9.97812622 -102.44989136 9.97812622 -97.80786133 9.95581055 C-87.78939349 9.90549051 -77.7710815 9.83889993 -67.75276661 9.76428509 C-61.67820879 9.71954333 -55.60371863 9.68029543 -49.52905273 9.65356445 C-43.66748463 9.6275697 -37.80617637 9.58719404 -31.94476891 9.53681374 C-29.70769163 9.52011918 -27.47056938 9.50862106 -25.23343849 9.50238609 C-22.1017185 9.49277337 -18.9706672 9.46474716 -15.83911133 9.43237305 C-14.91266312 9.43380814 -13.9862149 9.43524323 -13.0316925 9.4367218 C-8.27418267 9.36709398 -4.76937851 9.25602735 -1 6 C-0.10792821 2.9042893 -0.10792821 2.9042893 0 0 Z " fill="#0394FA" transform="translate(389,223)"/>
<path d="M0 0 C62.37 0 124.74 0 189 0 C189 11.88 189 23.76 189 36 C126.63 36 64.26 36 0 36 C0 24.12 0 12.24 0 0 Z " fill="#0291F5" transform="translate(282,396)"/>
<path d="M0 0 C62.37 0 124.74 0 189 0 C189 11.88 189 23.76 189 36 C126.63 36 64.26 36 0 36 C0 24.12 0 12.24 0 0 Z " fill="#0294FB" transform="translate(282,314)"/>
<path d="M0 0 C0.83716696 -0.00538554 1.67433393 -0.01077108 2.53686959 -0.01631981 C5.34048979 -0.03062086 8.14363928 -0.02349039 10.94728088 -0.01637268 C12.9579659 -0.02207512 14.96864768 -0.02903889 16.97932434 -0.03717041 C22.44004736 -0.05513075 27.90060994 -0.05392802 33.36135364 -0.04822803 C37.91914279 -0.04514036 42.47690093 -0.05122392 47.03468567 -0.05726677 C57.78633863 -0.07131981 68.53791214 -0.06974418 79.28956604 -0.05836487 C90.38397734 -0.04688231 101.47814695 -0.06095996 112.5725264 -0.08776134 C122.09622636 -0.1099075 131.6198504 -0.11655817 141.1435743 -0.11068493 C146.83237212 -0.10731164 152.52101499 -0.10975525 158.20979118 -0.12693596 C163.55899647 -0.14238568 168.90784328 -0.1384713 174.2570343 -0.11963081 C176.22022495 -0.1159395 178.18344204 -0.11906914 180.14660835 -0.1295166 C182.82683207 -0.14269107 185.50586288 -0.13121069 188.18603516 -0.11352539 C188.96279191 -0.1231304 189.73954866 -0.1327354 190.5398435 -0.14263147 C195.74921319 -0.07191339 198.71506281 0.99229512 202.6565094 4.38768005 C206.6565094 10.38768005 206.6565094 10.38768005 206.6565094 27.38768005 C132.7365094 27.38768005 58.8165094 27.38768005 -17.3434906 27.38768005 C-17.3434906 8.38768005 -17.3434906 8.38768005 -13.3434906 3.38768005 C-9.14588022 0.01933657 -5.18366025 -0.03999298 0 0 Z " fill="#828282" transform="translate(161.34349060058594,470.61231994628906)"/>
<path d="M0 0 C7.59 0 15.18 0 23 0 C23 82.5 23 165 23 250 C19.7 250 16.4 250 13 250 C12.98598145 248.09323486 12.98598145 248.09323486 12.97167969 246.14794922 C12.9317135 241.41761638 12.86593586 236.68792938 12.79248047 231.95800781 C12.76430934 229.91349605 12.74307565 227.86887616 12.72900391 225.82421875 C12.70752113 222.87964678 12.6608431 219.93636959 12.609375 216.9921875 C12.60814636 216.0825827 12.60691772 215.17297791 12.60565186 214.23580933 C12.45118586 207.49555406 11.05862337 203.96223818 6.140625 199.19921875 C3.36852944 197.64623821 0.88836034 197.25596396 -2.25 196.8125 C-4.1475 196.544375 -6.045 196.27625 -8 196 C-8 191.05 -8 186.1 -8 181 C-5.4321875 180.5978125 -5.4321875 180.5978125 -2.8125 180.1875 C2.8874402 179.12789573 6.27517757 178.03345795 10.09570312 173.52929688 C12.88016386 169.22515718 12.57440412 164.7620084 12.53125 159.78125 C12.5350769 158.80514771 12.53890381 157.82904541 12.54284668 156.82336426 C12.54556074 154.76585861 12.53823509 152.70831816 12.52148438 150.65087891 C12.50006789 147.50995618 12.52130364 144.37132073 12.546875 141.23046875 C12.54423163 139.22655747 12.53910648 137.22264762 12.53125 135.21875 C12.53934692 134.28421997 12.54744385 133.34968994 12.55578613 132.38684082 C12.47596676 126.80891991 11.99485638 123.22891764 8 119 C5.36 117.68 2.72 116.36 0 115 C0 77.05 0 39.1 0 0 Z " fill="#FEB408" transform="translate(473,103)"/>
<path d="M0 0 C0.67438158 -0.00709439 1.34876315 -0.01418877 2.04358053 -0.02149814 C4.30262394 -0.03909631 6.55995075 -0.0209668 8.81896973 -0.00291443 C10.43867273 -0.00805262 12.05837015 -0.01533315 13.67805481 -0.02459717 C18.07691662 -0.04313241 22.47517336 -0.03015948 26.87401009 -0.01050687 C31.47525884 0.00586356 36.07646878 -0.00293102 40.67773438 -0.00802612 C48.40508708 -0.01254889 56.13219786 0.00333402 63.85949707 0.03126526 C72.7959978 0.06331804 81.73206217 0.06330206 90.66859388 0.04605049 C99.26180975 0.03019205 107.85486549 0.03691454 116.44807434 0.0539875 C120.1067175 0.06086389 123.76523252 0.05981955 127.4238739 0.05244255 C131.73156492 0.04478683 136.03875877 0.05688217 140.34636497 0.08429146 C141.92820446 0.09118393 143.51009031 0.09126402 145.09192848 0.08407593 C147.24974916 0.07539967 149.40602902 0.09130309 151.5637207 0.11352539 C153.37554714 0.11773577 153.37554714 0.11773577 155.22397614 0.12203121 C158.87373428 0.72615933 160.06200922 1.72487629 162.28186035 4.62818909 C162.6295166 6.66334534 162.6295166 6.66334534 162.34436035 8.69068909 C162.2380127 9.69809143 162.2380127 9.69809143 162.1295166 10.72584534 C160.84933876 13.59887119 159.07463215 14.25938504 156.28186035 15.62818909 C153.14778042 16.00850582 153.14778042 16.00850582 149.55735779 16.01586914 C148.56287977 16.02394745 148.56287977 16.02394745 147.54831129 16.03218895 C145.33422227 16.04645831 143.12073198 16.03936779 140.90661621 16.03224182 C139.31632507 16.03794584 137.72603803 16.04491023 136.13575745 16.05303955 C131.82181388 16.0709798 127.50807362 16.06980131 123.19410396 16.06409717 C119.59297455 16.06100745 115.99188432 16.06709514 112.39076048 16.07313591 C103.89731467 16.08718153 95.40396945 16.08561873 86.91052246 16.07423401 C78.14499989 16.06274434 69.37978297 16.07684255 60.61430067 16.10363048 C53.0889123 16.12576842 45.56362002 16.13242943 38.03820139 16.12655407 C33.54329104 16.12317972 29.04857677 16.12563153 24.55369377 16.1428051 C20.32892443 16.15824256 16.10460921 16.15435465 11.87985802 16.13549995 C10.32864215 16.13180557 8.77739287 16.13494724 7.22620773 16.14538574 C5.110071 16.15854012 2.9954502 16.1471005 0.87937927 16.12939453 C-0.30508317 16.12918525 -1.48954561 16.12897596 -2.70990086 16.12876034 C-6.35005331 15.52303859 -7.49929485 14.52218957 -9.71813965 11.62818909 C-10.71813965 8.69068909 -10.71813965 8.69068909 -10.71813965 5.62818909 C-7.76605029 0.67325793 -5.65348541 0.00274421 0 0 Z " fill="#040402" transform="translate(230.7181396484375,149.37181091308594)"/>
<path d="M0 0 C24.09 0 48.18 0 73 0 C73.99 3.96 73.99 3.96 75 8 C77.11395176 11.72458168 79.94711129 14.54072856 84 16 C86.97108285 16.33097555 89.93445902 16.37260776 92.921875 16.4140625 C94.21185394 16.44311172 94.21185394 16.44311172 95.52789307 16.4727478 C98.26849521 16.53241814 101.00913964 16.5788786 103.75 16.625 C105.61069517 16.66319134 107.47137288 16.70224375 109.33203125 16.7421875 C113.88787864 16.83810935 118.44380879 16.92218668 123 17 C123 19.97 123 22.94 123 26 C82.41 26 41.82 26 0 26 C0 17.42 0 8.84 0 0 Z " fill="#595959" transform="translate(194,430)"/>
<path d="M0 0 C48.51 0 97.02 0 147 0 C147 5.28 147 10.56 147 16 C98.49 16 49.98 16 0 16 C0 10.72 0 5.44 0 0 Z " fill="#61D7F7" transform="translate(303,365)"/>
<path d="M0 0 C48.51 0 97.02 0 147 0 C147 4.95 147 9.9 147 15 C98.49 15 49.98 15 0 15 C0 10.05 0 5.1 0 0 Z " fill="#63DBFC" transform="translate(303,284)"/>
<path d="M0 0 C2.68860931 -0.10887507 5.37273158 -0.18770594 8.0625 -0.25 C8.81466797 -0.28351562 9.56683594 -0.31703125 10.34179688 -0.3515625 C16.80313324 -0.46344711 20.92882582 1.12163496 25.7421875 5.6328125 C39.14622105 23.28916014 30 49.83212398 30 72 C-128.4 72 -286.8 72 -450 72 C-450 71.67 -450 71.34 -450 71 C-299.19 71 -148.38 71 7 71 C9.34373412 32.56962563 9.34373412 32.56962563 0 0 Z " fill="#9C9C9C" transform="translate(466,16)"/>
<path d="M0 0 C6.47995613 3.68468094 11.03645176 7.58258787 13.1875 14.8125 C14.43002912 22.57830702 13.33213499 28.24602416 8.90234375 34.75 C6.62582758 37.48804223 4.35403321 39.19554687 1.1875 40.8125 C0.424375 41.225 -0.33875 41.6375 -1.125 42.0625 C-8.42377156 44.09936648 -13.994043 42.93303596 -20.58203125 39.296875 C-25.95258728 35.72277467 -28.83725142 30.94616665 -30.8125 24.8125 C-31.78292032 18.25624564 -30.48778674 13.28939789 -26.8125 7.8125 C-19.34136772 -1.07208974 -11.03633321 -3.43754641 0 0 Z " fill="#030303" transform="translate(175.8125,31.1875)"/>
<path d="M0 0 C6.47995613 3.68468094 11.03645176 7.58258787 13.1875 14.8125 C14.43002912 22.57830702 13.33213499 28.24602416 8.90234375 34.75 C6.62582758 37.48804223 4.35403321 39.19554687 1.1875 40.8125 C0.424375 41.225 -0.33875 41.6375 -1.125 42.0625 C-8.42377156 44.09936648 -13.994043 42.93303596 -20.58203125 39.296875 C-25.95258728 35.72277467 -28.83725142 30.94616665 -30.8125 24.8125 C-31.78292032 18.25624564 -30.48778674 13.28939789 -26.8125 7.8125 C-19.34136772 -1.07208974 -11.03633321 -3.43754641 0 0 Z " fill="#030303" transform="translate(119.8125,31.1875)"/>
<path d="M0 0 C6.47735302 3.68320074 11.01005856 7.59513792 13.1875 14.8125 C14.21485727 22.00400092 13.35918753 27.82168315 9.1875 33.8125 C5.16803528 38.7251791 0.28920415 42.0128898 -5.9765625 43.234375 C-12.947709 43.67776948 -19.21305939 40.93946034 -24.44921875 36.390625 C-29.19948032 31.08402649 -31.42795352 25.12312342 -31.1640625 18.08203125 C-29.9395014 10.17680905 -24.90947488 5.10426141 -18.6875 0.5 C-12.80471636 -2.65974842 -6.16852644 -1.9213443 0 0 Z " fill="#040303" transform="translate(63.8125,31.1875)"/>
<path d="M0 0 C1.38112221 -0.01051392 1.38112221 -0.01051392 2.79014587 -0.02124023 C5.83371132 -0.03884545 8.87634697 -0.02718835 11.91992188 -0.01367188 C14.03454772 -0.01636606 16.14917235 -0.02024786 18.26379395 -0.02526855 C22.69567662 -0.03116704 27.12723683 -0.02258918 31.55908203 -0.00390625 C37.2423189 0.01888326 42.9248002 0.00576209 48.60800934 -0.01819611 C52.97460634 -0.03264448 57.34102396 -0.02805245 61.70762634 -0.01768494 C63.80321848 -0.015015 65.89882685 -0.01829674 67.99440002 -0.02760315 C70.92248728 -0.03775273 73.84934795 -0.02228963 76.77734375 0 C78.07882607 -0.01214539 78.07882607 -0.01214539 79.40660095 -0.02453613 C85.25542789 0.05802392 85.25542789 0.05802392 88.43078613 2.36242676 C90.41456213 5.29498685 90.39522491 7.04407157 89.88867188 10.51757812 C88.10882783 13.65349383 87.36558981 14.35860548 83.88867188 15.51757812 C80.97892115 15.62968653 78.09251338 15.68528173 75.18212891 15.69458008 C73.84752625 15.70443687 73.84752625 15.70443687 72.48596191 15.7144928 C69.53946856 15.73421578 66.5930261 15.74588492 63.64648438 15.75585938 C62.13747873 15.76197267 62.13747873 15.76197267 60.59798813 15.76820946 C55.2754512 15.78906387 49.95294003 15.80336949 44.63037109 15.81274414 C39.1300066 15.82381965 33.63004542 15.85823463 28.12982368 15.89791584 C23.90220378 15.92404051 19.67468069 15.93243219 15.44698715 15.93602562 C13.41918075 15.9409007 11.39137894 15.95254078 9.36365128 15.97106361 C6.52677498 15.99537127 3.69095212 15.99450558 0.85400391 15.98754883 C-0.40236374 16.00676392 -0.40236374 16.00676392 -1.68411255 16.02636719 C-5.63795699 15.99101648 -7.66909356 15.78226351 -11.13650513 13.70695496 C-13.11132812 11.51757812 -13.11132812 11.51757812 -13.67382812 8.01757812 C-13.11132812 4.51757812 -13.11132812 4.51757812 -11.64562988 2.33117676 C-7.8745841 -0.36746142 -4.53245216 -0.04229668 0 0 Z " fill="#050402" transform="translate(129.111328125,218.482421875)"/>
<path d="M0 0 C2.9375 2.125 2.9375 2.125 5 5 C5.29238631 8.28934602 4.64693185 10.08786627 2.7421875 12.7734375 C-2.412775 18.87472161 -8.30872668 24.40135138 -14 30 C-12.59078189 33.23821281 -10.92309836 35.25364328 -8.33984375 37.64453125 C-7.62892578 38.32193359 -6.91800781 38.99933594 -6.18554688 39.69726562 C-4.69060327 41.10388936 -3.18799228 42.50240987 -1.67773438 43.89257812 C1.75119945 47.18447917 3.76116109 49.18528468 5.12109375 53.82421875 C5 57 5 57 3 60 C0 62 0 62 -3.28930664 61.96899414 C-7.75812559 60.80202642 -10.21114863 58.69087418 -13.37109375 55.49609375 C-13.93828629 54.93938492 -14.50547882 54.38267609 -15.08985901 53.80909729 C-16.27959043 52.63216299 -17.4616997 51.44747895 -18.63647461 50.25561523 C-20.43281896 48.44222546 -22.26333883 46.66932504 -24.09960938 44.89648438 C-25.25486634 43.74445156 -26.40793908 42.59022338 -27.55859375 41.43359375 C-28.10535263 40.90930283 -28.65211151 40.3850119 -29.21543884 39.84483337 C-31.98224636 36.97377639 -33.36189039 34.78379354 -33.5246582 30.84448242 C-33.0009136 27.0066945 -32.71071378 25.71326178 -30.046875 23.0546875 C-29.40685547 22.3956543 -28.76683594 21.73662109 -28.10742188 21.05761719 C-27.41197266 20.37860352 -26.71652344 19.69958984 -26 19 C-25.29939453 18.2771582 -24.59878906 17.55431641 -23.87695312 16.80957031 C-21.69072211 14.5575363 -19.47516944 12.33851934 -17.25 10.125 C-16.11884766 8.98804688 -16.11884766 8.98804688 -14.96484375 7.828125 C-14.23910156 7.10367188 -13.51335938 6.37921875 -12.765625 5.6328125 C-12.11368164 4.98199707 -11.46173828 4.33118164 -10.79003906 3.66064453 C-7.16551998 0.29812696 -4.89831318 -0.68576385 0 0 Z " fill="#060502" transform="translate(67,128)"/>
<path d="M0 0 C0.70616959 -0.0071553 1.41233917 -0.01431061 2.13990784 -0.02168274 C4.46958504 -0.03856457 6.79733626 -0.01917328 9.12695312 0.00219727 C10.74833332 0.0013685 12.36971344 -0.00109115 13.99108887 -0.00511169 C17.38738325 -0.00796931 20.78301801 0.00672701 24.17919922 0.03417969 C28.5307978 0.06826319 32.88121697 0.06224436 37.23287201 0.04351711 C40.58040176 0.03294419 43.92765747 0.04188744 47.27516174 0.05690193 C48.87951341 0.06208211 50.48389371 0.06160391 52.08824158 0.05535698 C54.33158821 0.0499009 56.57325151 0.07028881 58.81640625 0.09765625 C60.09229614 0.10385483 61.36818604 0.11005341 62.68273926 0.11643982 C66.46258537 0.71956224 67.66102201 1.58277358 69.90820312 4.63110352 C70.40820312 7.63110352 70.40820312 7.63110352 69.90820312 10.63110352 C68.04110402 12.93385908 66.55172571 14.30934222 63.90820312 15.63110352 C61.7497587 15.74349518 59.5878103 15.7904672 57.42651367 15.80810547 C56.76125671 15.81467667 56.09599976 15.82124786 55.4105835 15.82801819 C53.20536184 15.84775512 51.00020831 15.85941489 48.79492188 15.86938477 C47.66516402 15.87549806 47.66516402 15.87549806 46.51258278 15.88173485 C42.52572529 15.90259782 38.53890223 15.91689821 34.55200195 15.92626953 C30.43598532 15.93733136 26.3205097 15.97172734 22.20468426 16.01144123 C19.03820294 16.03760038 15.87185063 16.04596073 12.70527077 16.04955101 C11.18822388 16.05441926 9.67118285 16.06604018 8.15424156 16.084589 C6.0284186 16.10896611 3.90399643 16.10801906 1.77807617 16.10107422 C-0.03488701 16.10987358 -0.03488701 16.10987358 -1.88447571 16.11885071 C-5.7337052 15.53348654 -7.37268826 14.37207325 -10.09179688 11.63110352 C-11.15429688 8.69360352 -11.15429688 8.69360352 -11.09179688 5.63110352 C-8.08042541 0.5140391 -5.79319064 0.00436689 0 0 Z " fill="#060502" transform="translate(186.091796875,281.368896484375)"/>
<path d="M0 0 C4.9218891 1.04116885 7.62194895 4.32093354 11.25 7.6875 C12.49861816 8.84439331 12.49861816 8.84439331 13.77246094 10.0246582 C16.46023047 12.55073303 19.10751344 15.11414827 21.75 17.6875 C22.6678125 18.55117187 23.585625 19.41484375 24.53125 20.3046875 C30.93294903 26.5730178 30.93294903 26.5730178 32.28125 31.3125 C30.76790579 36.26526287 27.87247871 39.0824251 24.25 42.6875 C23.52377441 43.44256836 22.79754883 44.19763672 22.04931641 44.97558594 C19.74396358 47.36240872 17.40795116 49.71511525 15.0625 52.0625 C14.26908203 52.86816406 13.47566406 53.67382812 12.65820312 54.50390625 C11.50674805 55.65826172 11.50674805 55.65826172 10.33203125 56.8359375 C9.64343018 57.52864746 8.9548291 58.22135742 8.24536133 58.93505859 C5.46973042 61.37277775 3.48923306 62.74946165 -0.25 62.5625 C-3.39117537 61.46308862 -4.78600004 60.37890735 -6.75 57.6875 C-7.22134058 54.01192569 -7.19613035 52.30786099 -5.00585938 49.26220703 C-4.20986328 48.49763184 -3.41386719 47.73305664 -2.59375 46.9453125 C-1.73652344 46.10742188 -0.87929687 45.26953125 0.00390625 44.40625 C0.91011719 43.5503125 1.81632812 42.694375 2.75 41.8125 C3.65621094 40.93335938 4.56242187 40.05421875 5.49609375 39.1484375 C7.73452087 36.98069755 9.98572089 34.82816925 12.25 32.6875 C10.83079247 29.44654935 9.11691752 27.32914495 6.58984375 24.8671875 C5.87892578 24.16722656 5.16800781 23.46726563 4.43554688 22.74609375 C3.69369141 22.02550781 2.95183594 21.30492187 2.1875 20.5625 C0.71526807 19.12462439 -0.75489156 17.68462292 -2.22265625 16.2421875 C-2.87500244 15.60780762 -3.52734863 14.97342773 -4.19946289 14.31982422 C-6.33401682 12.07267769 -6.72354719 10.93086588 -7.0625 7.8125 C-6.75 4.6875 -6.75 4.6875 -5.125 2.3125 C-2.75 0.6875 -2.75 0.6875 0 0 Z " fill="#040301" transform="translate(119.75,127.3125)"/>
<path d="M0 0 C0.68651642 -0.00686325 1.37303284 -0.0137265 2.08035278 -0.02079773 C4.35008417 -0.03910138 6.61912665 -0.03522333 8.88891602 -0.02954102 C10.46688564 -0.03410133 12.04485326 -0.03940645 13.62281799 -0.04542542 C16.93075628 -0.05436363 20.23845325 -0.05192569 23.54638672 -0.04199219 C27.78473274 -0.03050478 32.02224533 -0.05070606 36.26048183 -0.07990932 C39.51961048 -0.09826014 42.77853903 -0.09798111 46.03770638 -0.0922718 C47.60021191 -0.09211843 49.16273087 -0.09817592 50.7251873 -0.11056328 C52.91107231 -0.12545039 55.09541317 -0.11481531 57.28125 -0.09765625 C58.52462631 -0.09749008 59.76800262 -0.09732391 61.04905701 -0.09715271 C64.78808538 0.49659377 65.97457741 1.39509501 68.20532227 4.40405273 C68.70532227 7.40405273 68.70532227 7.40405273 68.20532227 10.40405273 C66.33822316 12.7068083 64.84884485 14.08229144 62.20532227 15.40405273 C60.07762632 15.52148638 57.94623918 15.57386677 55.81542969 15.59692383 C55.1599263 15.60510132 54.50442291 15.61327881 53.82905579 15.6217041 C51.65631015 15.64654835 49.48362983 15.66307185 47.31079102 15.67749023 C46.56865168 15.68281391 45.82651234 15.68813759 45.06188393 15.69362259 C41.13338885 15.72035055 37.20492551 15.73972612 33.27636719 15.75415039 C29.22075519 15.77079379 25.16595655 15.81556861 21.11065197 15.86652184 C17.99049458 15.90019637 14.87053017 15.91172794 11.7502079 15.91737747 C10.25546366 15.92408997 8.76073212 15.93931233 7.26616478 15.96326828 C5.17123757 15.99493002 3.07850259 15.99495704 0.98339844 15.98754883 C-0.8029174 15.99967911 -0.8029174 15.99967911 -2.62532043 16.01205444 C-6.7500186 15.22078249 -8.25791125 13.69062473 -10.79467773 10.40405273 C-10.79467773 6.95294571 -10.61128285 4.61384256 -8.65684509 1.71836853 C-5.82619601 -0.27950066 -3.43404327 0.01493189 0 0 Z " fill="#050502" transform="translate(300.794677734375,182.595947265625)"/>
<path d="M0 0 C1.30500458 -0.00960754 2.61000916 -0.01921509 3.95455933 -0.02911377 C5.38132553 -0.03396164 6.80809377 -0.0382405 8.23486328 -0.04199219 C9.69833376 -0.04774584 11.16180421 -0.05350355 12.62527466 -0.05926514 C15.69354605 -0.06976685 18.7617913 -0.07561499 21.83007812 -0.07910156 C25.75652433 -0.08458571 29.68262366 -0.10861519 33.60896111 -0.13707352 C36.63218182 -0.15572141 39.65531932 -0.16090662 42.67859268 -0.16243744 C44.12584454 -0.16545947 45.5730951 -0.17347287 47.02029037 -0.18662262 C49.04731099 -0.20372673 51.07447503 -0.19995175 53.1015625 -0.1953125 C54.25389374 -0.19895813 55.40622498 -0.20260376 56.59347534 -0.20635986 C60.3261839 0.23804447 63.00308258 1.48403961 65.68017578 4.16113281 C66.14758573 9.95701617 66.14758573 9.95701617 65.68017578 12.16113281 C63.30465399 14.54763902 61.89801193 15.1348407 58.52391052 15.54208374 C57.28053421 15.54447052 56.0371579 15.5468573 54.75610352 15.54931641 C54.06783478 15.55457336 53.37956604 15.55983032 52.67044067 15.56524658 C50.4013177 15.57842272 48.13289931 15.56971849 45.86376953 15.55957031 C44.28483445 15.56159152 42.70590027 15.56450334 41.12696838 15.56826782 C37.82080176 15.57268772 34.51487854 15.56627018 31.20874023 15.55224609 C26.96932105 15.53514017 22.73047104 15.54500606 18.49107265 15.56296349 C15.23199668 15.57379851 11.97305592 15.57035657 8.71397591 15.56258011 C7.15065506 15.56057804 5.58732197 15.56303763 4.02401543 15.57001877 C1.84062999 15.57763045 -0.34183006 15.56603502 -2.52514648 15.54931641 C-3.7677272 15.54692963 -5.01030792 15.54454285 -6.2905426 15.54208374 C-9.31982422 15.16113281 -9.31982422 15.16113281 -11.21958923 13.75796509 C-13.24774323 10.8143923 -12.85526231 7.58079743 -12.31982422 4.16113281 C-9.33001875 -0.25238954 -4.92093509 0.02919874 0 0 Z " fill="#050402" transform="translate(98.31982421875,249.8388671875)"/>
<path d="M0 0 C1.78204834 -0.01902626 1.78204834 -0.01902626 3.60009766 -0.03843689 C4.87933105 -0.03550125 6.15856445 -0.03256561 7.4765625 -0.02954102 C9.45148682 -0.03740379 9.45148682 -0.03740379 11.46630859 -0.04542542 C14.25042311 -0.05435056 17.03425069 -0.05194003 19.81835938 -0.04199219 C23.38301275 -0.03049527 26.94667657 -0.05072623 30.51119995 -0.07990932 C33.91637338 -0.10268308 37.3213147 -0.09580477 40.7265625 -0.09204102 C42.0057959 -0.10327499 43.2850293 -0.11450897 44.60302734 -0.12608337 C45.79105957 -0.11670242 46.9790918 -0.10732147 48.203125 -0.09765625 C49.77054443 -0.097407 49.77054443 -0.097407 51.36962891 -0.09715271 C54.80747645 0.53356098 55.99329669 1.66350501 58.1015625 4.40405273 C58.60503572 7.85644055 58.51712404 9.67187288 56.7890625 12.71655273 C53.74949884 15.75611639 50.57665591 15.54138726 46.50024414 15.58105469 C45.35217789 15.59388992 44.20411163 15.60672516 43.02125549 15.61994934 C41.78060837 15.62733627 40.53996124 15.63472321 39.26171875 15.64233398 C37.35126015 15.6544416 37.35126015 15.6544416 35.40220642 15.66679382 C32.70633303 15.68063236 30.01058184 15.69165024 27.31469727 15.69921875 C23.86331977 15.71029747 20.41258449 15.7447214 16.96143436 15.78439045 C13.66575949 15.81682452 10.37002891 15.82133168 7.07421875 15.82983398 C5.83559586 15.84734207 4.59697296 15.86485016 3.32081604 15.88288879 C2.16959763 15.87996323 1.01837921 15.87703766 -0.16772461 15.87402344 C-1.68637367 15.8828228 -1.68637367 15.8828228 -3.23570251 15.89179993 C-6.6106087 15.27360059 -7.78611742 14.04953761 -9.8984375 11.40405273 C-10.67088717 8.44488892 -10.29623892 6.53673895 -9.8984375 3.40405273 C-6.83363815 0.23188978 -4.29810789 0.02222374 0 0 Z " fill="#050402" transform="translate(175.8984375,182.595947265625)"/>
<path d="M0 0 C1.12474228 -0.01260864 2.24948456 -0.02521729 3.40830994 -0.03820801 C4.61878494 -0.03011108 5.82925995 -0.02201416 7.07641602 -0.01367188 C8.32407242 -0.01749878 9.57172882 -0.02132568 10.85719299 -0.02526855 C13.49634272 -0.02799121 16.13401119 -0.02262063 18.77294922 -0.00390625 C22.14700078 0.01886118 25.519778 0.00577359 28.89378262 -0.01819611 C32.12137201 -0.03617176 35.34880995 -0.02356424 38.57641602 -0.01367188 C39.78486679 -0.0217688 40.99331757 -0.02986572 42.23838806 -0.03820801 C43.3662825 -0.02559937 44.49417694 -0.01299072 45.65625 0 C46.645681 0.00318237 47.635112 0.00636475 48.65452576 0.00964355 C52.17122856 0.66196697 53.86805365 2.02671385 56.39282227 4.51757812 C57.01782227 7.45507812 57.01782227 7.45507812 56.39282227 10.51757812 C54.7311545 13.02812127 53.94426797 14.08147153 51.39282227 15.51757812 C47.21023578 16.27721313 43.07173202 16.21791451 38.83032227 16.18164062 C37.60627686 16.18642426 36.38223145 16.19120789 35.12109375 16.19613647 C32.53555006 16.1995359 29.94996342 16.19033076 27.36450195 16.16943359 C23.40682131 16.14267278 19.45197718 16.16918437 15.49438477 16.20117188 C12.98135767 16.19786779 10.46833234 16.19146159 7.95532227 16.18164062 C6.77188232 16.19176178 5.58844238 16.20188293 4.36914062 16.21231079 C-4.75800542 16.08208703 -4.75800542 16.08208703 -7.85717773 13.16748047 C-10.00537208 9.91462034 -10.33924013 8.34057064 -9.60717773 4.51757812 C-6.65761475 0.75120775 -4.72461517 0.01520832 0 0 Z " fill="#000305" transform="translate(402.607177734375,324.482421875)"/>
<path d="M0 0 C1.22404541 -0.00478363 2.44809082 -0.00956726 3.70922852 -0.01449585 C6.2947722 -0.01789528 8.88035884 -0.00869013 11.46582031 0.01220703 C15.42350096 0.03896784 19.37834508 0.01245625 23.3359375 -0.01953125 C25.84896459 -0.01622716 28.36198992 -0.00982097 30.875 0 C32.05843994 -0.01012115 33.24187988 -0.02024231 34.46118164 -0.03067017 C43.58825114 0.0995525 43.58825114 0.0995525 46.68359375 3.01416016 C48.4375 5.6640625 48.4375 5.6640625 49.0625 8.7265625 C48.22566292 12.65969676 46.75431647 13.48919504 43.4375 15.6640625 C40.69920349 16.17199707 40.69920349 16.17199707 37.70092773 16.18164062 C36.57303329 16.19424927 35.44513885 16.20685791 34.2830658 16.21984863 C33.07461502 16.21175171 31.86616425 16.20365479 30.62109375 16.1953125 C28.74817406 16.20105286 28.74817406 16.20105286 26.8374176 16.20690918 C24.20004564 16.2096293 21.56416093 16.20428185 18.92700195 16.18554688 C15.551761 16.16273293 12.1777907 16.1759011 8.80259609 16.19983673 C5.57538334 16.2177853 2.34832309 16.2052113 -0.87890625 16.1953125 C-2.08938126 16.20340942 -3.29985626 16.21150635 -4.54701233 16.21984863 C-5.67175461 16.20723999 -6.79649689 16.19463135 -7.95532227 16.18164062 C-8.94395767 16.17845825 -9.93259308 16.17527588 -10.95118713 16.17199707 C-14.29603932 15.52137949 -15.48528467 14.31651046 -17.5625 11.6640625 C-18.2945624 7.84106999 -17.96069434 6.26702029 -15.8125 3.01416016 C-11.55255702 -0.99208942 -5.47424697 -0.0468175 0 0 Z " fill="#000204" transform="translate(410.5625,242.3359375)"/>
<path d="M0 0 C1.2476564 -0.00478363 2.49531281 -0.00956726 3.78077698 -0.01449585 C6.420244 -0.01789958 9.05739692 -0.0111877 11.6965332 0.01220703 C15.07083238 0.04066841 18.44314078 0.02430879 21.8173666 -0.00565529 C25.04498126 -0.02812504 28.27235929 -0.01236559 31.5 0 C32.70845078 -0.01012115 33.91690155 -0.02024231 35.16197205 -0.03067017 C44.48341705 0.09958445 44.48341705 0.09958445 47.61743164 3.01025391 C49.31640625 5.6640625 49.31640625 5.6640625 49.31640625 8.7890625 C48.32184451 11.64842751 47.72779151 12.90189635 45.31640625 14.6640625 C42.33300799 15.65852859 40.30750597 15.80769843 37.18994141 15.84106445 C36.1452066 15.85389969 35.1004718 15.86673492 34.02407837 15.87995911 C32.89593719 15.88734604 31.76779602 15.89473297 30.60546875 15.90234375 C29.44518158 15.9104155 28.28489441 15.91848724 27.08944702 15.92680359 C24.63321425 15.94063998 22.17696228 15.95136412 19.72070312 15.95922852 C15.96317249 15.97646267 12.20651676 16.02035685 8.44921875 16.06445312 C6.06380856 16.07457819 3.67839088 16.08309488 1.29296875 16.08984375 C-0.39317032 16.11610588 -0.39317032 16.11610588 -2.1133728 16.14289856 C-9.89423644 16.12124052 -9.89423644 16.12124052 -13.86572266 13.82104492 C-16.23940203 11.00457201 -16.75876816 9.34760869 -16.68359375 5.6640625 C-13.45365876 -1.40260036 -6.73458555 -0.05630995 0 0 Z " fill="#060502" transform="translate(115.68359375,281.3359375)"/>
<path d="M0 0 C3.8398907 0.62692093 5.47091039 1.60351749 8.0625 4.5 C8.48949891 8.98309606 7.68134064 12.14415916 5.9375 16.25390625 C5.48197754 17.34630615 5.02645508 18.43870605 4.55712891 19.56420898 C4.06390137 20.71864502 3.57067383 21.87308105 3.0625 23.0625 C2.04700284 25.48073243 1.03401033 27.90001807 0.0234375 30.3203125 C-0.47961914 31.52461914 -0.98267578 32.72892578 -1.50097656 33.96972656 C-2.82666643 37.22762519 -4.07229271 40.4991624 -5.2734375 43.8046875 C-5.62148437 44.76044678 -5.96953125 45.71620605 -6.328125 46.70092773 C-6.96804494 48.47991153 -7.59632587 50.26314021 -8.2109375 52.05102539 C-9.94692104 56.8399956 -11.39200961 59.76395041 -15.9375 62.5 C-19.23928235 63.14425021 -20.42709909 62.83107086 -23.25 61 C-25.59039518 57.53274789 -25.43598673 54.51893207 -24.9375 50.5 C-23.92693158 46.82733994 -22.55510452 43.33086893 -21.140625 39.796875 C-20.55556183 38.29655731 -20.55556183 38.29655731 -19.9586792 36.76593018 C-19.13461793 34.66233293 -18.3038585 32.56134867 -17.46679688 30.46289062 C-16.1886871 27.25298135 -14.93671574 24.03374813 -13.6875 20.8125 C-12.88174436 18.76501986 -12.07450311 16.71812359 -11.265625 14.671875 C-10.70600067 13.23119659 -10.70600067 13.23119659 -10.1350708 11.76141357 C-5.7996178 0.98716899 -5.7996178 0.98716899 0 0 Z " fill="#050402" transform="translate(101.9375,127.5)"/>
<path d="M0 0 C1.69195496 -0.01891296 1.69195496 -0.01891296 3.41809082 -0.03820801 C5.23850891 -0.02606262 5.23850891 -0.02606262 7.09570312 -0.01367188 C8.3457312 -0.01749878 9.59575928 -0.02132568 10.88366699 -0.02526855 C13.52701218 -0.02799102 16.16887798 -0.02262141 18.81201172 -0.00390625 C22.19512803 0.01888458 25.57697509 0.00575829 28.96004486 -0.01819611 C32.19280946 -0.03614871 35.42542195 -0.02356889 38.65820312 -0.01367188 C39.87181519 -0.0217688 41.08542725 -0.02986572 42.33581543 -0.03820801 C43.4637854 -0.02559937 44.59175537 -0.01299072 45.75390625 0 C47.24138367 0.00477356 47.24138367 0.00477356 48.75891113 0.00964355 C52.11005673 0.65980986 53.3016394 1.85500536 55.37695312 4.51757812 C55.87695312 7.51757812 55.87695312 7.51757812 55.37695312 10.51757812 C53.50985402 12.82033369 52.02047571 14.19581683 49.37695312 15.51757812 C47.67796017 15.62836778 45.97472476 15.67674632 44.2722168 15.69458008 C42.67497017 15.71383293 42.67497017 15.71383293 41.04545593 15.73347473 C39.31269157 15.74455513 39.31269157 15.74455513 37.54492188 15.75585938 C36.36102371 15.76393112 35.17712555 15.77200287 33.95735168 15.78031921 C31.44806385 15.79416876 28.93875711 15.804887 26.42944336 15.81274414 C22.59062028 15.82996077 18.7526573 15.8738413 14.9140625 15.91796875 C12.47852197 15.92809501 10.04297411 15.93661132 7.60742188 15.94335938 C5.88376656 15.96962151 5.88376656 15.96962151 4.12528992 15.99641418 C-3.8063199 15.97481432 -3.8063199 15.97481432 -7.85229492 13.7097168 C-9.62304688 11.51757812 -9.62304688 11.51757812 -10.18554688 8.01757812 C-9.18899274 1.81679686 -6.03592827 0.01937029 0 0 Z " fill="#060502" transform="translate(47.623046875,218.482421875)"/>
<path d="M0 0 C1.14799072 -0.01260864 2.29598145 -0.02521729 3.47875977 -0.03820801 C4.71424561 -0.03011108 5.94973145 -0.02201416 7.22265625 -0.01367188 C8.49488037 -0.01749878 9.76710449 -0.02132568 11.07788086 -0.02526855 C13.76829452 -0.02799114 16.45725496 -0.02262001 19.14746094 -0.00390625 C22.5911037 0.01888451 26.03349952 0.00575844 29.47709656 -0.01819611 C32.76732753 -0.0361474 36.057409 -0.02356908 39.34765625 -0.01367188 C40.58314209 -0.0217688 41.81862793 -0.02986572 43.09155273 -0.03820801 C44.81353882 -0.01929504 44.81353882 -0.01929504 46.5703125 0 C47.579729 0.00318237 48.58914551 0.00636475 49.62915039 0.00964355 C53.02016063 0.65814037 54.2352669 1.77803063 56.28515625 4.51757812 C56.22537351 7.92519453 56.09340931 10.38757909 54.0766449 13.20716858 C51.56595153 15.04365052 49.77806515 14.90510511 46.68383789 14.92163086 C45.53577164 14.93431503 44.38770538 14.94699921 43.20484924 14.96006775 C41.34387856 14.95566429 41.34387856 14.95566429 39.4453125 14.95117188 C37.5348539 14.95903465 37.5348539 14.95903465 35.58580017 14.96705627 C32.88965056 14.97348602 30.19434532 14.97356242 27.49829102 14.96362305 C24.0468173 14.95213745 20.59636732 14.97233511 17.14502811 15.00154018 C13.84928431 15.02432179 10.55361661 15.01743476 7.2578125 15.01367188 C6.01918961 15.02490585 4.78056671 15.03613983 3.50440979 15.04771423 C2.35319138 15.03833328 1.20197296 15.02895233 0.01586914 15.01928711 C-1.50277992 15.01903786 -1.50277992 15.01903786 -3.05210876 15.01878357 C-6.43973234 14.38113266 -7.62495174 13.21087744 -9.71484375 10.51757812 C-10.21484375 7.51757812 -10.21484375 7.51757812 -9.71484375 4.51757812 C-6.74966522 0.70029455 -4.76503224 0.01502265 0 0 Z " fill="#000001" transform="translate(402.71484375,406.482421875)"/>
<path d="M0 0 C26.62502116 -0.09340865 53.25001779 -0.16396227 79.87516975 -0.20724869 C92.23747355 -0.22788083 104.59967558 -0.25601403 116.96191406 -0.30175781 C127.7358478 -0.34160544 138.50970784 -0.36742807 149.28371322 -0.37635398 C154.98938676 -0.3815722 160.69484946 -0.39385075 166.40045547 -0.42292023 C171.77006824 -0.45005638 177.13938317 -0.45844855 182.509058 -0.45243073 C184.48032436 -0.45353176 186.4516006 -0.46149623 188.42280769 -0.4768219 C191.11419808 -0.49672158 193.80446376 -0.49193929 196.49588013 -0.48101807 C197.27604748 -0.49266943 198.05621483 -0.5043208 198.86002362 -0.51632524 C204.08290832 -0.45903372 207.0501128 0.59287854 211 4 C215 10 215 10 215 27 C141.08 27 67.16 27 -9 27 C-9 26.67 -9 26.34 -9 26 C59.64 26 128.28 26 199 26 C199.45535291 8.24072238 199.45535291 8.24072238 196 2 C131.32 1.67 66.64 1.34 0 1 C0 0.67 0 0.34 0 0 Z " fill="#4E4E4E" transform="translate(153,471)"/>
<path d="M0 0 C0.98367554 -0.0038269 1.96735107 -0.00765381 2.98083496 -0.01159668 C5.05868555 -0.01431627 7.13657035 -0.00695182 9.21435547 0.00976562 C12.39498211 0.03117416 15.57334987 0.00996512 18.75390625 -0.015625 C20.77344249 -0.01298173 22.79297732 -0.00785678 24.8125 0 C25.76362671 -0.00809692 26.71475342 -0.01619385 27.69470215 -0.02453613 C34.25367741 0.06862352 34.25367741 0.06862352 37.50976562 2.37695312 C39.41440863 5.31516464 39.40769617 7.09276198 38.90625 10.53125 C37.12640595 13.6671657 36.38316793 14.37227736 32.90625 15.53125 C31.53675974 15.63613616 30.16292485 15.68958809 28.78955078 15.70825195 C27.96504425 15.72108719 27.14053772 15.73392242 26.29104614 15.74714661 C25.40351654 15.75453354 24.51598694 15.76192047 23.6015625 15.76953125 C22.22736649 15.78163887 22.22736649 15.78163887 20.82540894 15.79399109 C18.88704311 15.80781873 16.94865308 15.81854679 15.01025391 15.82641602 C12.04933552 15.84364477 9.08952933 15.88754414 6.12890625 15.93164062 C4.24479987 15.94176657 2.36068401 15.95028298 0.4765625 15.95703125 C-0.40691864 15.97453934 -1.29039978 15.99204742 -2.20065308 16.01008606 C-6.30852002 15.99562086 -8.55135387 15.85138736 -12.15673828 13.72338867 C-14.09375 11.53125 -14.09375 11.53125 -14.65625 8.03125 C-14.09375 4.53125 -14.09375 4.53125 -12.68945312 2.34570312 C-8.66969064 -0.46419856 -4.79307268 -0.04080334 0 0 Z " fill="#060502" transform="translate(52.09375,281.46875)"/>
<path d="M0 0 C10.23 0 20.46 0 31 0 C31.11537895 4.69720516 31.21471667 9.38941583 31.2746582 14.08691406 C31.29966413 15.68148536 31.33368099 17.27594365 31.37719727 18.87011719 C31.80805441 35.07034587 31.80805441 35.07034587 27.43432617 40.63476562 C25.46614913 42.50813516 23.46874612 43.87143035 21 45 C20.98598145 44.10075806 20.98598145 44.10075806 20.97167969 43.18334961 C20.91757724 40.43393733 20.83401203 37.68615448 20.75 34.9375 C20.73582031 33.99455078 20.72164063 33.05160156 20.70703125 32.08007812 C20.49167908 25.89947078 19.64216523 22.0466164 16 17 C11.04877448 13.46341034 5.90985177 13.39931431 0 13 C0 8.71 0 4.42 0 0 Z " fill="#585858" transform="translate(465,368)"/>
<path d="M0 0 C1.3756311 -0.00786278 1.3756311 -0.00786278 2.77905273 -0.0158844 C4.71564726 -0.02230031 6.65228078 -0.02097318 8.58886719 -0.01245117 C11.5521372 -0.00393603 14.51348265 -0.03271638 17.4765625 -0.06445312 C19.35937442 -0.06606512 21.24218976 -0.06548764 23.125 -0.0625 C24.45325806 -0.07935097 24.45325806 -0.07935097 25.80834961 -0.09654236 C31.90926483 -0.02739261 31.90926483 -0.02739261 35.125 2.24194336 C37.21571676 5.42950523 37.03622971 7.71143174 36.5625 11.43359375 C34.73134793 14.04952528 33.65281634 14.4034883 30.5625 15.43359375 C27.58737948 15.56694537 24.63650007 15.64591496 21.66015625 15.671875 C20.78604599 15.67994675 19.91193573 15.68801849 19.01133728 15.69633484 C17.1629331 15.71015898 15.31450357 15.7208886 13.46606445 15.72875977 C10.63899649 15.74600835 7.8130875 15.78991244 4.98632812 15.83398438 C3.19011276 15.84410861 1.39388747 15.85262555 -0.40234375 15.859375 C-1.24723862 15.87688309 -2.09213348 15.89439117 -2.96263123 15.91242981 C-8.82823801 15.89073121 -8.82823801 15.89073121 -11.96899414 13.53417969 C-14.47105047 9.95517841 -13.98236586 7.72441242 -13.4375 3.43359375 C-9.9483474 -0.7275044 -4.99418283 -0.01655678 0 0 Z " fill="#000204" transform="translate(308.4375,324.56640625)"/>
<path d="M0 0 C0.87032364 -0.00145523 1.74064728 -0.00291046 2.63734436 -0.00440979 C4.4756302 -0.0027519 6.31393007 0.00879709 8.15209961 0.02954102 C10.95942468 0.05845746 13.76485613 0.05015564 16.57226562 0.03710938 C18.36068623 0.04334834 20.14910088 0.05174052 21.9375 0.0625 C22.77409653 0.05956436 23.61069305 0.05662872 24.47264099 0.05360413 C29.57927224 0.13585171 33.24597228 0.70690978 37.03515625 4.49609375 C37.61191049 10.60968867 37.61191049 10.60968867 35.60546875 13.69335938 C31.74107054 16.40372377 28.21321212 16.06954768 23.59765625 16.02734375 C22.68056885 16.03117065 21.76348145 16.03499756 20.81860352 16.03894043 C18.88198752 16.04165924 16.94533478 16.03430021 15.00878906 16.01757812 C12.04539072 15.99616769 9.08441674 16.01738044 6.12109375 16.04296875 C4.2382759 16.04032547 2.35545956 16.03520048 0.47265625 16.02734375 C-0.85560181 16.03948914 -0.85560181 16.03948914 -2.21069336 16.05187988 C-8.31219124 15.958929 -8.31219124 15.958929 -11.5234375 13.68164062 C-13.64795591 10.46031799 -13.50320062 8.26459187 -12.96484375 4.49609375 C-9.57964916 -0.538716 -5.53874901 -0.07419586 0 0 Z " fill="#000203" transform="translate(307.96484375,242.50390625)"/>
<path d="M0 0 C0.84775497 -0.01268417 1.69550995 -0.02536835 2.56895447 -0.03843689 C3.4814949 -0.03550125 4.39403534 -0.03256561 5.33422852 -0.02954102 C6.74527611 -0.03740379 6.74527611 -0.03740379 8.18482971 -0.04542542 C10.1744793 -0.05184933 12.16416684 -0.05050385 14.15380859 -0.04199219 C17.19836103 -0.03348853 20.24103371 -0.06222812 23.28540039 -0.09399414 C25.21834254 -0.09560639 27.15128801 -0.09502818 29.08422852 -0.09204102 C29.99474472 -0.10327499 30.90526093 -0.11450897 31.84336853 -0.12608337 C38.13211905 -0.05675212 38.13211905 -0.05675212 41.35009766 2.24755859 C43.30658136 5.20724699 43.35545962 6.92510361 42.77563477 10.40405273 C41.35009766 12.56054688 41.35009766 12.56054688 38.77563477 14.40405273 C35.54626649 14.9944784 32.35925311 14.94055384 29.08422852 14.90014648 C28.14257339 14.90160172 27.20091827 14.90305695 26.23072815 14.90455627 C24.24281719 14.90289818 22.25489328 14.89134693 20.26708984 14.87060547 C17.22055727 14.84162335 14.17576181 14.85000374 11.12915039 14.86303711 C9.19750129 14.85680046 7.26585769 14.8484101 5.33422852 14.83764648 C3.96541786 14.84204994 3.96541786 14.84204994 2.56895447 14.84654236 C1.72119949 14.83385818 0.87344452 14.82117401 0 14.80810547 C-0.74516373 14.80270248 -1.49032745 14.7972995 -2.2580719 14.79173279 C-4.76288929 14.29787578 -5.66026802 13.38366266 -7.22436523 11.40405273 C-7.62280273 9.46655273 -7.62280273 9.46655273 -7.59936523 7.40405273 C-7.60709961 6.72342773 -7.61483398 6.04280273 -7.62280273 5.34155273 C-6.75159886 1.10511034 -4.01959912 0.02914505 0 0 Z " fill="#000001" transform="translate(302.224365234375,406.595947265625)"/>
<path d="M0 0 C1.04269043 -0.00574036 1.04269043 -0.00574036 2.10644531 -0.01159668 C3.57228041 -0.0143118 5.03816428 -0.00697835 6.50390625 0.00976562 C8.74328975 0.03118581 10.97946587 0.00995557 13.21875 -0.015625 C14.64584039 -0.01298165 16.07292879 -0.0078565 17.5 0 C19.44132812 0.00676758 19.44132812 0.00676758 21.421875 0.01367188 C24.75 0.53125 24.75 0.53125 27.17578125 2.37695312 C29.30891401 5.2961162 29.26635373 6.99053874 28.75 10.53125 C26.97015595 13.6671657 26.22691793 14.37227736 22.75 15.53125 C18.478112 15.78071587 14.20421928 15.80194636 9.92602539 15.82641602 C8.51869673 15.83795816 7.11141261 15.85844564 5.7043457 15.88793945 C3.66848076 15.93060657 1.63391267 15.94677956 -0.40234375 15.95703125 C-2.2275354 15.97890503 -2.2275354 15.97890503 -4.08959961 16.0012207 C-7.25 15.53125 -7.25 15.53125 -9.64672852 13.72338867 C-11.98453491 10.52692703 -11.80116564 8.3894095 -11.25 4.53125 C-8.05320194 0.1040012 -5.27980464 0.01840569 0 0 Z " fill="#050402" transform="translate(177.25,149.46875)"/>
<path d="M0 0 C1.83691406 -0.0009668 1.83691406 -0.0009668 3.7109375 -0.00195312 C5.61746094 0.02801758 5.61746094 0.02801758 7.5625 0.05859375 C8.83351562 0.05150391 10.10453125 0.04441406 11.4140625 0.03710938 C21.9841668 0.10943114 21.9841668 0.10943114 26.5625 3.49609375 C27.98291821 6.33693016 27.87702272 8.35086653 27.5625 11.49609375 C25.3226177 14.56105012 24.11252156 15.40813013 20.32617188 16.01367188 C18.44768555 16.02043945 18.44768555 16.02043945 16.53125 16.02734375 C15.85831909 16.03117065 15.18538818 16.03499756 14.49206543 16.03894043 C13.0733083 16.04165505 11.65450073 16.03432509 10.23583984 16.01757812 C8.06884797 15.9961565 5.90517049 16.01738913 3.73828125 16.04296875 C2.35676354 16.04032539 0.9752479 16.03520022 -0.40625 16.02734375 C-1.65857422 16.02283203 -2.91089844 16.01832031 -4.20117188 16.01367188 C-7.99797994 15.40645755 -9.1927814 14.57056145 -11.4375 11.49609375 C-12 7.99609375 -12 7.99609375 -11.4375 4.49609375 C-7.7617573 0.72568048 -5.19226496 -0.00862876 0 0 Z " fill="#060502" transform="translate(225.4375,249.50390625)"/>
<path d="M0 0 C62.37 0 124.74 0 189 0 C189 11.88 189 23.76 189 36 C186.03 36 183.06 36 180 36 C180 24.45 180 12.9 180 1 C120.93 1 61.86 1 1 1 C1 12.55 1 24.1 1 36 C0.67 36 0.34 36 0 36 C0 24.12 0 12.24 0 0 Z " fill="#006CCE" transform="translate(282,314)"/>
<path d="M0 0 C0.33 0 0.66 0 1 0 C1 11.55 1 23.1 1 35 C60.07 35 119.14 35 180 35 C180 23.45 180 11.9 180 0 C182.97 0 185.94 0 189 0 C189 11.88 189 23.76 189 36 C126.63 36 64.26 36 0 36 C0 24.12 0 12.24 0 0 Z " fill="#006CCE" transform="translate(282,233)"/>
<path d="M0 0 C2.03089967 0.00850359 4.05897838 -0.02023887 6.08959961 -0.05200195 C7.37157227 -0.05135742 8.65354492 -0.05071289 9.97436523 -0.05004883 C11.14926514 -0.05190186 12.32416504 -0.05375488 13.53466797 -0.05566406 C17.21298101 0.5457309 18.39444097 1.4930254 20.60327148 4.44604492 C21.10674471 7.89843274 21.01883302 9.71386507 19.29077148 12.75854492 C14.95740068 17.09191572 7.42216622 15.75333374 1.72827148 15.82104492 C-0.04870117 15.87711914 -0.04870117 15.87711914 -1.86157227 15.93432617 C-11.60610358 16.03319966 -11.60610358 16.03319966 -14.71704102 13.14916992 C-16.39672852 10.44604492 -16.39672852 10.44604492 -16.39672852 6.82104492 C-13.90003235 -1.60530464 -7.69838774 -0.04931881 0 0 Z " fill="#070603" transform="translate(260.396728515625,182.553955078125)"/>
<path d="M0 0 C1.175625 -0.02384766 2.35125 -0.04769531 3.5625 -0.07226562 C13.14921159 -0.05592464 13.14921159 -0.05592464 16.27734375 2.90625 C18.39035569 6.164409 18.72954455 7.75265626 18 11.5625 C15.81388126 14.43471567 14.63337604 15.45178453 11.0390625 16.08007812 C9.91242188 16.08458984 8.78578125 16.08910156 7.625 16.09375 C6.39265625 16.09890625 5.1603125 16.1040625 3.890625 16.109375 C2.60671875 16.09390625 1.3228125 16.0784375 0 16.0625 C-1.92585938 16.08570313 -1.92585938 16.08570313 -3.890625 16.109375 C-5.12296875 16.10421875 -6.3553125 16.0990625 -7.625 16.09375 C-9.31496094 16.08698242 -9.31496094 16.08698242 -11.0390625 16.08007812 C-14.64451879 15.44983676 -15.82701701 14.46413241 -18 11.5625 C-18.5625 8.0625 -18.5625 8.0625 -18 4.5625 C-12.63243716 -0.86269377 -7.20411755 -0.06714364 0 0 Z " fill="#070603" transform="translate(56,249.4375)"/>
<path d="M0 0 C0.7940625 -0.01933594 1.588125 -0.03867188 2.40625 -0.05859375 C6.72527795 -0.02260185 8.51224651 0.24675503 12.02734375 2.97265625 C14 5.625 14 5.625 14.5625 8.6875 C13.83981421 12.4615258 13.1348295 13.38853793 10 15.625 C6.65823917 16.22360974 3.38647544 16.18305386 0 16.125 C-1.35351562 16.14820313 -1.35351562 16.14820313 -2.734375 16.171875 C-9.2878044 16.13309731 -9.2878044 16.13309731 -12.58984375 13.77734375 C-14.55638139 10.7757863 -14.64678348 9.14637671 -14 5.625 C-9.89796917 0.10959617 -6.41560538 -0.15622416 0 0 Z " fill="#080703" transform="translate(191,249.375)"/>
<path d="M0 0 C1.13211914 -0.02320313 1.13211914 -0.02320313 2.28710938 -0.046875 C5.84997881 -0.02176226 8.01847427 0.19573092 10.93359375 2.3125 C13.14140955 5.52386843 12.98065958 7.69788295 12.4375 11.5 C10.96875 13.6875 10.96875 13.6875 8.4375 15.5 C5.42561759 16.08790498 2.497363 16.05865552 -0.5625 16 C-1.36945313 16.01546875 -2.17640625 16.0309375 -3.0078125 16.046875 C-6.8370336 16.02159961 -8.91826323 15.96201833 -12.08984375 13.6875 C-14.27424802 10.44276156 -14.17545932 8.31396909 -13.5625 4.5 C-9.43345467 -0.01614333 -5.74935568 -0.11844166 0 0 Z " fill="#000406" transform="translate(369.5625,242.5)"/>
<path d="M0 0 C0.80695313 -0.01546875 1.61390625 -0.0309375 2.4453125 -0.046875 C6.27579842 -0.02159126 8.35699676 0.03957793 11.53125 2.3125 C13.69176517 5.53028855 13.54051136 7.71642048 13 11.5 C11.49609375 13.68359375 11.49609375 13.68359375 9 15.5 C6.02719191 15.92806075 3.52521124 16.10551118 0.5625 16.0625 C-0.56381836 16.09827148 -0.56381836 16.09827148 -1.71289062 16.13476562 C-5.93024413 16.12363804 -7.56530633 15.83960443 -11 13.15625 C-13 10.5 -13 10.5 -13.5625 7.4375 C-12.09659166 -0.21779909 -6.56665411 -0.12587835 0 0 Z " fill="#000406" transform="translate(369,324.5)"/>
<path d="M0 0 C0.86302734 -0.00708984 1.72605469 -0.01417969 2.61523438 -0.02148438 C8.94803321 0.04248329 8.94803321 0.04248329 11.1796875 1.84350586 C12.74050271 3.82148771 12.87026636 4.93813632 12.875 7.4375 C12.90400391 8.4584375 12.90400391 8.4584375 12.93359375 9.5 C12.4375 11.4375 12.4375 11.4375 10.97265625 13.16015625 C7.17178704 15.07523211 3.63522941 14.91188101 -0.5625 14.875 C-1.36945313 14.89498047 -2.17640625 14.91496094 -3.0078125 14.93554688 C-6.86412695 14.9323651 -8.90982146 14.91190061 -12.09375 12.59765625 C-14.10405596 9.64100946 -14.14647206 7.94133238 -13.5625 4.4375 C-10.1137669 -0.75909238 -5.66099704 -0.13165109 0 0 Z " fill="#000203" transform="translate(369.5625,406.5625)"/>
<path d="M0 0 C2.97 0 5.94 0 9 0 C9 11.88 9 23.76 9 36 C6.03 36 3.06 36 0 36 C0 24.12 0 12.24 0 0 Z " fill="#0075ED" transform="translate(462,396)"/>
<path d="M0 0 C3.63 0 7.26 0 11 0 C11 4.95 11 9.9 11 15 C7.37 15 3.74 15 0 15 C0 10.05 0 5.1 0 0 Z " fill="#00D1FC" transform="translate(439,366)"/>
<path d="M0 0 C3.63 0 7.26 0 11 0 C11 4.95 11 9.9 11 15 C7.37 15 3.74 15 0 15 C0 10.05 0 5.1 0 0 Z " fill="#00D1FC" transform="translate(439,284)"/>
<path d="M0 0 C2.375 1.625 2.375 1.625 4 4 C4.5625 7 4.5625 7 4 10 C1.875 12.4375 1.875 12.4375 -1 14 C-4.56090901 14 -6.25697245 13.69349238 -8.875 11.25 C-10.24863504 8.50272993 -10.53062116 7.03212094 -10 4 C-7.16979976 -0.02759265 -4.82432618 -0.80405436 0 0 Z " fill="#79D6D2" transform="translate(170,45)"/>
<path d="M0 0 C2.375 1.625 2.375 1.625 4 4 C4.5625 7 4.5625 7 4 10 C1.8125 12.4375 1.8125 12.4375 -1 14 C-4.31195977 14 -5.67765762 13.24393477 -8.3125 11.25 C-10 9 -10 9 -10.5 6.5 C-9.33827182 0.69135908 -5.5534724 -0.92557873 0 0 Z " fill="#F6D069" transform="translate(114,45)"/>
<path d="M0 0 C2.375 1.625 2.375 1.625 4 4 C4.61793165 7.70758991 4.50197249 9.2935202 2.3125 12.375 C0 14 0 14 -2.5 14.5 C-5.90524375 13.81895125 -7.02547983 12.8520847 -9 10 C-9.42841969 6.51143969 -9.66830867 4.15097604 -7.875 1.0625 C-5.06487736 -0.52990283 -3.17235276 -0.45319325 0 0 Z " fill="#FB697E" transform="translate(58,45)"/>
<path d="M0 0 C2.64 0 5.28 0 8 0 C8 4.95 8 9.9 8 15 C5.36 15 2.72 15 0 15 C0 10.05 0 5.1 0 0 Z " fill="#F8D168" transform="translate(465,284)"/>
<path d="M0 0 C2.64 0 5.28 0 8 0 C8 4.29 8 8.58 8 13 C5.36 13 2.72 13 0 13 C0 8.71 0 4.42 0 0 Z " fill="#7D7D7D" transform="translate(465,368)"/>
<path d="M0 0 C3 3 3 3 3.5 5.9375 C3 9 3 9 0.75 11.4375 C-2 13 -2 13 -4.3125 12.75 C-4.869375 12.5025 -5.42625 12.255 -6 12 C-5.01 12 -4.02 12 -3 12 C-2.01 8.04 -1.02 4.08 0 0 Z " fill="#099DA3" transform="translate(171,46)"/>
<path d="M0 0 C3 3 3 3 3.5 5.9375 C3 9 3 9 0.75 11.4375 C-2 13 -2 13 -4.3125 12.75 C-4.869375 12.5025 -5.42625 12.255 -6 12 C-5.01 12 -4.02 12 -3 12 C-2.01 8.04 -1.02 4.08 0 0 Z " fill="#E8A810" transform="translate(115,46)"/>
<path d="M0 0 C2.35750253 2.10736963 2.95179593 2.67634409 3.4375 5.9375 C3 9 3 9 1.3125 11.375 C-1.38790237 13.27258004 -2.77060081 13.35882213 -6 13 C-5.38125 12.525625 -4.7625 12.05125 -4.125 11.5625 C-1.1889379 8.02195453 -0.72455289 4.46172044 0 0 Z " fill="#E53F57" transform="translate(59,46)"/>
</svg>
